<?xml version="1.0" encoding="utf-8"?>
<!-- Generator: Adobe Illustrator 27.0.1, SVG Export Plug-In . SVG Version: 6.00 Build 0)  -->
<svg version="1.1" id="Layer_1" xmlns="http://www.w3.org/2000/svg" xmlns:xlink="http://www.w3.org/1999/xlink" x="0px" y="0px"
	 width="225px" height="200px" viewBox="0 0 225 200" style="enable-background:new 0 0 225 200;" xml:space="preserve">
<style type="text/css">
	.st0{opacity:0.1;fill:#08163A;enable-background:new    ;}
</style>
<path class="st0" d="M142.2,23.3c-2.1-0.5-3.7-1.4-4.9-2.7c-1.2-1.3-2-2.8-2.3-4.6c-0.3-1.8-0.2-3.8,0.3-5.9
	c0.5-2.1,1.3-3.9,2.5-5.4s2.5-2.5,4.2-3c1.7-0.6,3.5-0.6,5.6-0.1c2.4,0.6,4.3,1.7,5.5,3.3c1.2,1.6,1.9,3.5,1.9,5.8l-2.3,0
	c0-1.8-0.5-3.3-1.4-4.5c-0.9-1.2-2.3-2.1-4.2-2.6c-1.6-0.4-3.1-0.4-4.3,0.1c-1.3,0.5-2.3,1.3-3.2,2.5c-0.9,1.2-1.5,2.7-2,4.4
	c-0.4,1.7-0.5,3.3-0.3,4.8c0.2,1.5,0.8,2.7,1.7,3.7c0.9,1,2.2,1.7,3.8,2.1c1.9,0.5,3.5,0.3,4.9-0.4c1.4-0.7,2.5-1.8,3.3-3.3l2,1.1
	c-1.1,2-2.5,3.4-4.4,4.2C146.8,23.8,144.6,23.9,142.2,23.3z M161.7,31c-1.9-1-3.2-2.3-4-3.9c-0.8-1.6-1.1-3.2-1-5.1
	c0.2-1.8,0.8-3.7,1.9-5.6c1.1-1.9,2.4-3.4,3.8-4.5c1.5-1.1,3.1-1.7,4.8-1.8c1.7-0.1,3.6,0.4,5.4,1.4c1.9,1.1,3.2,2.4,4,3.9
	c0.8,1.5,1.1,3.2,1,5.1c-0.2,1.8-0.8,3.7-1.9,5.6c-1.1,1.9-2.4,3.4-3.8,4.5c-1.5,1.1-3.1,1.7-4.8,1.8
	C165.4,32.5,163.6,32.1,161.7,31z M162.8,29.2c1.5,0.8,2.9,1.2,4.2,1.1c1.4-0.1,2.6-0.6,3.8-1.6c1.2-0.9,2.2-2.2,3.1-3.7
	c0.9-1.6,1.4-3.1,1.6-4.5c0.2-1.5,0-2.8-0.6-4c-0.6-1.2-1.6-2.2-3.1-3.1c-1.5-0.8-2.9-1.2-4.2-1.1c-1.3,0.1-2.6,0.6-3.8,1.6
	c-1.2,0.9-2.2,2.2-3.1,3.7c-0.9,1.6-1.4,3.1-1.6,4.5c-0.2,1.5,0,2.8,0.6,4C160.3,27.3,161.3,28.3,162.8,29.2z M172.8,37.5l15.1-15.3
	l1.6,1.5l-3.9,20.9L197.9,32l1.6,1.5l-15.1,15.3l-1.6-1.5l3.9-20.9L174.4,39L172.8,37.5z M189.9,57.1L206.5,47l-3.9-6.4l1.8-1.1
	l9,14.7l-1.8,1.1l-3.9-6.4L191.1,59L189.9,57.1z M195.2,65.8l22.7,0.2l0.9,2.8l-18,13.9l-0.7-2.2l17-13.1l0.3,0.8L196,67.9
	L195.2,65.8z M201.2,67.2l2-0.7l3.5,10.5l-2,0.7L201.2,67.2z M201.5,93.4c-0.2-2.1,0.2-4,1-5.5c0.8-1.5,2.1-2.7,3.7-3.6
	c1.6-0.9,3.5-1.4,5.7-1.6c2.2-0.2,4.2,0.1,5.9,0.7c1.7,0.6,3.1,1.6,4.2,3c1.1,1.4,1.7,3.2,1.8,5.3c0.2,2.5-0.3,4.6-1.5,6.2
	c-1.2,1.7-2.8,2.9-4.9,3.6l-0.7-2.2c1.7-0.6,2.9-1.5,3.9-2.8c0.9-1.3,1.3-2.8,1.1-4.8c-0.1-1.7-0.6-3-1.5-4.1
	c-0.8-1.1-2-1.8-3.4-2.3c-1.4-0.5-3-0.6-4.8-0.5c-1.8,0.1-3.3,0.5-4.7,1.2c-1.3,0.7-2.3,1.6-3,2.8c-0.7,1.2-1,2.6-0.8,4.3
	c0.1,1.9,0.8,3.4,1.8,4.5c1.1,1.1,2.5,1.8,4.2,2.2l-0.4,2.3c-2.2-0.4-4-1.4-5.4-2.9C202.4,97.9,201.7,95.9,201.5,93.4z M201.2,111.7
	l19.1,3.3l1.3-7.4l2.1,0.4l-2.9,17l-2.1-0.4l1.3-7.4l-19.1-3.3L201.2,111.7z M206,135.8l1.8-1l1.7,3.4l2.6-2.8l1.5,1.4l-2.7,2.7
	l3.5,1.6l-0.9,1.8l-3.4-1.8l-0.4,3.8l-2-0.3l0.6-3.8l-3.8,0.8l-0.4-2l3.8-0.6L206,135.8z M180.4,152.7c1.5-1.6,3-2.6,4.7-3
	c1.7-0.4,3.4-0.3,5.2,0.3c1.7,0.6,3.4,1.7,5,3.2c1.6,1.5,2.8,3.1,3.5,4.8c0.7,1.7,0.9,3.4,0.6,5.1c-0.3,1.7-1.2,3.4-2.7,4.9
	c-1.7,1.8-3.6,2.9-5.6,3.1c-2,0.3-4-0.1-6-1.1l1.1-2c1.6,0.8,3.1,1.2,4.6,1c1.5-0.2,3-1,4.3-2.4c1.2-1.2,1.8-2.5,2-3.8s0-2.7-0.6-4
	c-0.6-1.3-1.6-2.6-2.9-3.9c-1.3-1.2-2.6-2.1-4-2.6c-1.4-0.5-2.7-0.6-4.1-0.3c-1.3,0.3-2.6,1.1-3.7,2.3c-1.3,1.4-2,2.9-2.1,4.4
	c-0.1,1.5,0.3,3.1,1.3,4.6l-2,1.2c-1.2-1.9-1.7-3.9-1.5-5.9C177.8,156.5,178.7,154.6,180.4,152.7z M164.1,166
	c1.8-1.1,3.6-1.6,5.4-1.6c1.8,0,3.4,0.6,4.9,1.6c1.5,1,2.9,2.5,4,4.4c1.1,1.9,1.8,3.7,2.1,5.6c0.2,1.8,0,3.5-0.8,5.1
	c-0.8,1.6-2.1,2.9-3.9,4c-1.8,1.1-3.6,1.7-5.4,1.6c-1.7,0-3.4-0.6-4.9-1.6c-1.5-1-2.9-2.5-4-4.4c-1.1-1.9-1.8-3.7-2-5.6
	c-0.2-1.8,0-3.5,0.8-5.1C161,168.4,162.3,167.1,164.1,166z M165.2,167.8c-1.4,0.9-2.4,1.9-3,3.2c-0.6,1.2-0.7,2.6-0.5,4.1
	c0.2,1.5,0.8,3,1.7,4.5c0.9,1.5,2,2.7,3.2,3.6c1.2,0.9,2.5,1.3,3.8,1.4c1.4,0.1,2.8-0.3,4.2-1.2c1.4-0.9,2.4-1.9,3-3.2
	c0.6-1.2,0.7-2.6,0.5-4c-0.2-1.5-0.8-3-1.7-4.5s-2-2.7-3.2-3.6c-1.2-0.9-2.5-1.3-3.8-1.4C168,166.5,166.6,166.9,165.2,167.8z
	 M153.1,172.5l5.9,20.7l-2.1,0.6l-16.2-13.7l4.9,16.9l-2.1,0.6l-5.9-20.7l2.1-0.6l16.2,13.7l-4.9-16.9L153.1,172.5z M127.5,177.7
	l0.7,19.4l7.5-0.3l0.1,2.1l-17.2,0.6l-0.1-2.1l7.5-0.3l-0.7-19.4L127.5,177.7z M117.4,178L106,197.7l-2.9-0.5l-3.2-22.5l2.2,0.4
	l3.1,21.2l-0.9-0.2l10.7-18.6L117.4,178z M113.1,182.5l-0.4,2l-10.9-2.1l0.4-2L113.1,182.5z M90.3,169.9c1.9,0.9,3.4,2.1,4.3,3.6
	c0.9,1.5,1.4,3.2,1.3,5c0,1.8-0.5,3.8-1.5,5.8s-2.1,3.6-3.5,4.8c-1.4,1.2-3,1.9-4.7,2.2c-1.7,0.2-3.6-0.1-5.5-1
	c-2.3-1.1-3.8-2.5-4.7-4.3c-0.9-1.8-1.1-3.8-0.8-6l2.3,0.4c-0.3,1.7-0.1,3.3,0.5,4.7c0.6,1.4,1.8,2.5,3.6,3.3c1.5,0.7,3,1,4.3,0.7
	c1.3-0.2,2.5-0.8,3.6-1.8s2-2.3,2.8-3.9c0.8-1.6,1.2-3.2,1.3-4.6c0.1-1.5-0.2-2.8-0.9-4c-0.7-1.2-1.8-2.1-3.3-2.8
	c-1.7-0.8-3.4-1-4.9-0.6c-1.5,0.4-2.8,1.3-3.9,2.6l-1.8-1.5c1.4-1.7,3.2-2.8,5.1-3.3C85.9,168.5,88,168.8,90.3,169.9z M74.5,160.6
	l-12.3,15l5.8,4.8l-1.3,1.6l-13.3-10.9l1.3-1.6l5.8,4.8l12.3-15L74.5,160.6z M51.1,152.9l0,2l-3.8-0.2l1.2,3.7l-1.9,0.6l-1-3.7
	l-3.1,2.3l-1.2-1.7l3.2-2.1l-3.1-2.2l1.2-1.6l3,2.4l1.2-3.7l1.9,0.7l-1.3,3.6H51.1z M48.9,122.3c0.6,2,0.7,3.9,0.3,5.6
	c-0.5,1.7-1.4,3.1-2.8,4.4c-1.4,1.2-3.1,2.2-5.2,2.8s-4.1,0.9-5.9,0.6c-1.8-0.2-3.4-0.9-4.8-2c-1.3-1.1-2.3-2.7-3-4.8
	c-0.7-2.4-0.7-4.5,0-6.4c0.8-1.9,2.1-3.4,3.9-4.6l1.2,2c-1.5,0.9-2.5,2.1-3.1,3.6c-0.6,1.4-0.6,3.1,0,4.9c0.5,1.6,1.3,2.8,2.3,3.7
	c1.1,0.8,2.3,1.3,3.8,1.4c1.5,0.1,3.1-0.1,4.8-0.6c1.7-0.5,3.1-1.3,4.3-2.2c1.1-0.9,1.9-2.1,2.3-3.4c0.4-1.3,0.4-2.8-0.1-4.4
	c-0.6-1.8-1.5-3.2-2.8-4c-1.3-0.8-2.8-1.2-4.6-1.2l-0.1-2.3c2.2-0.1,4.2,0.4,5.9,1.6C47,118.2,48.2,120,48.9,122.3z M45.5,101.6
	c0.1,2.1-0.4,4-1.3,5.5c-0.9,1.5-2.2,2.7-3.8,3.5c-1.7,0.8-3.6,1.2-5.8,1.3c-2.2,0.1-4.1-0.3-5.9-1c-1.7-0.7-3.1-1.8-4-3.2
	c-1-1.4-1.5-3.2-1.6-5.4c-0.1-2.1,0.4-4,1.3-5.5c0.9-1.5,2.2-2.7,3.8-3.5c1.7-0.8,3.6-1.3,5.8-1.3c2.2-0.1,4.1,0.3,5.9,1
	c1.7,0.7,3.1,1.8,4,3.2C44.9,97.7,45.4,99.5,45.5,101.6z M43.4,101.7c-0.1-1.7-0.5-3.1-1.3-4.2c-0.8-1.1-1.9-1.9-3.3-2.4
	c-1.4-0.5-3-0.8-4.8-0.7c-1.8,0.1-3.4,0.4-4.7,1C28,96,27,96.8,26.2,98c-0.7,1.1-1.1,2.6-1,4.2c0.1,1.7,0.5,3.1,1.3,4.2
	c0.8,1.1,1.9,1.9,3.3,2.4c1.4,0.5,3,0.8,4.8,0.7c1.8,0,3.4-0.4,4.7-1c1.3-0.6,2.4-1.5,3.1-2.6C43.1,104.8,43.4,103.4,43.4,101.7z
	 M45.2,88.8l-20.9-5l0.5-2.1l19.9-7.4l-17.1-4.1l0.5-2.1L49,73l-0.5,2.1l-19.9,7.4l17.1,4.1L45.2,88.8z M53.3,64l-17.2-8.9l-3.5,6.7
	l-1.9-1l7.9-15.3l1.9,1l-3.5,6.7L54.3,62L53.3,64z M58,55L46.4,35.4l1.9-2.2l21.2,8.3L68,43.3l-20-7.8l0.6-0.7l10.9,18.5L58,55z
	 M56.1,49.1l-1.6-1.3l7.2-8.5l1.6,1.3L56.1,49.1z M78.4,35.4c-1.7,1.2-3.5,1.9-5.2,2c-1.8,0.1-3.4-0.3-5-1.3c-1.6-0.9-3-2.3-4.3-4.1
	c-1.3-1.8-2.1-3.6-2.4-5.4c-0.4-1.8-0.2-3.5,0.4-5.2c0.6-1.6,1.8-3.1,3.6-4.3c2-1.4,4.1-2.1,6.1-2c2,0.1,3.9,0.9,5.6,2.3l-1.5,1.8
	c-1.4-1.1-2.8-1.7-4.4-1.9c-1.5-0.1-3.1,0.4-4.7,1.5c-1.4,1-2.3,2.1-2.8,3.4c-0.5,1.3-0.5,2.6-0.2,4.1c0.3,1.4,1,2.9,2,4.4
	c1,1.5,2.2,2.6,3.4,3.4c1.2,0.8,2.6,1.2,3.9,1.1c1.4,0,2.7-0.5,4.1-1.5c1.6-1.1,2.6-2.4,2.9-3.9c0.4-1.5,0.3-3.1-0.3-4.7l2.2-0.8
	c0.8,2.1,0.9,4.1,0.3,6.1S80.5,34,78.4,35.4z M94.2,26.3l-7-18.1l-7,2.7l-0.8-2l16.1-6.2l0.8,2l-7,2.7l7,18.1L94.2,26.3z M112.5,9.6
	l-1.7-1l2.1-3.3L109,4.6l0.4-2l3.7,0.9l-0.4-3.8l2-0.2l0.3,3.9l3.5-1.6l0.8,1.9l-3.6,1.5l2.6,2.8l-1.5,1.3l-2.5-2.9L112.5,9.6z"/>
</svg>
