<?xml version="1.0" encoding="utf-8"?>
<!-- Generator: Adobe Illustrator 27.0.1, SVG Export Plug-In . SVG Version: 6.00 Build 0)  -->
<svg version="1.1" id="Layer_1" xmlns="http://www.w3.org/2000/svg" xmlns:xlink="http://www.w3.org/1999/xlink" x="0px" y="0px"
	 width="260px" height="200px" viewBox="0 0 260 200" style="enable-background:new 0 0 260 200;" xml:space="preserve">
<style type="text/css">
	.st0{opacity:0.4;fill:#FFFFFF;enable-background:new    ;}
</style>
<path class="st0" d="M177.2,23.3c-2.1-0.5-3.7-1.4-4.9-2.7c-1.2-1.3-2-2.8-2.3-4.6c-0.3-1.8-0.2-3.8,0.3-5.9
	c0.5-2.1,1.3-3.9,2.5-5.4s2.5-2.5,4.2-3c1.7-0.6,3.5-0.6,5.6-0.1c2.4,0.6,4.3,1.7,5.5,3.3c1.2,1.6,1.9,3.5,1.9,5.8l-2.3,0
	c0-1.8-0.5-3.3-1.4-4.5c-0.9-1.2-2.3-2.1-4.2-2.6c-1.6-0.4-3.1-0.4-4.3,0.1c-1.3,0.5-2.3,1.3-3.2,2.5c-0.9,1.2-1.5,2.7-2,4.4
	c-0.4,1.7-0.5,3.3-0.3,4.8c0.2,1.5,0.8,2.7,1.7,3.7c0.9,1,2.2,1.7,3.8,2.1c1.9,0.5,3.5,0.3,4.9-0.4c1.4-0.7,2.5-1.8,3.3-3.3l2,1.1
	c-1.1,2-2.5,3.4-4.4,4.2C181.8,23.8,179.6,23.9,177.2,23.3z M196.7,31c-1.9-1-3.2-2.3-4-3.9c-0.8-1.6-1.1-3.2-1-5.1
	c0.2-1.8,0.8-3.7,1.9-5.6c1.1-1.9,2.4-3.4,3.8-4.5c1.5-1.1,3.1-1.7,4.8-1.8c1.7-0.1,3.6,0.4,5.4,1.4c1.9,1.1,3.2,2.4,4,3.9
	c0.8,1.5,1.1,3.2,1,5.1c-0.2,1.8-0.8,3.7-1.9,5.6c-1.1,1.9-2.4,3.4-3.8,4.5c-1.5,1.1-3.1,1.7-4.8,1.8S198.6,32.1,196.7,31z
	 M197.8,29.2c1.5,0.8,2.9,1.2,4.2,1.1c1.4-0.1,2.6-0.6,3.8-1.6c1.2-0.9,2.2-2.2,3.1-3.7c0.9-1.6,1.4-3.1,1.6-4.5
	c0.2-1.5,0-2.8-0.6-4c-0.6-1.2-1.6-2.2-3.1-3.1c-1.5-0.8-2.9-1.2-4.2-1.1c-1.3,0.1-2.6,0.6-3.8,1.6c-1.2,0.9-2.2,2.2-3.1,3.7
	c-0.9,1.6-1.4,3.1-1.6,4.5c-0.2,1.5,0,2.8,0.6,4C195.3,27.3,196.3,28.3,197.8,29.2z M207.8,37.5l15.1-15.3l1.6,1.5l-3.9,20.9
	L232.9,32l1.6,1.5l-15.1,15.3l-1.6-1.5l3.9-20.9L209.4,39L207.8,37.5z M224.9,57.1L241.5,47l-3.9-6.4l1.8-1.1l9,14.7l-1.8,1.1
	l-3.9-6.4L226.1,59L224.9,57.1z M230.2,65.8l22.7,0.2l0.9,2.8l-18,13.9l-0.7-2.2l17-13.1l0.3,0.8L231,67.9L230.2,65.8z M236.2,67.2
	l2-0.7l3.5,10.5l-2,0.7L236.2,67.2z M236.5,93.4c-0.2-2.1,0.2-4,1-5.5c0.8-1.5,2.1-2.7,3.7-3.6c1.6-0.9,3.5-1.4,5.7-1.6
	c2.2-0.2,4.2,0.1,5.9,0.7c1.7,0.6,3.1,1.6,4.2,3c1.1,1.4,1.7,3.2,1.8,5.3c0.2,2.5-0.3,4.6-1.5,6.2c-1.2,1.7-2.8,2.9-4.9,3.6
	l-0.7-2.2c1.7-0.6,2.9-1.5,3.9-2.8c0.9-1.3,1.3-2.8,1.1-4.8c-0.1-1.7-0.6-3-1.5-4.1c-0.8-1.1-2-1.8-3.4-2.3c-1.4-0.5-3-0.6-4.8-0.5
	c-1.8,0.1-3.3,0.5-4.7,1.2c-1.3,0.7-2.3,1.6-3,2.8c-0.7,1.2-1,2.6-0.8,4.3c0.1,1.9,0.8,3.4,1.8,4.5c1.1,1.1,2.5,1.8,4.2,2.2
	l-0.4,2.3c-2.2-0.4-4-1.4-5.4-2.9C237.4,97.9,236.7,95.9,236.5,93.4z M236.2,111.7l19.1,3.3l1.3-7.4l2.1,0.4l-2.9,17l-2.1-0.4
	l1.3-7.4l-19.1-3.3L236.2,111.7z M241,135.8l1.8-1l1.7,3.4l2.6-2.8l1.5,1.4l-2.7,2.7l3.5,1.6l-0.9,1.8l-3.4-1.8l-0.4,3.8l-2-0.3
	l0.6-3.8l-3.8,0.8l-0.4-2l3.8-0.6L241,135.8z M215.4,152.7c1.5-1.6,3-2.6,4.7-3c1.7-0.4,3.4-0.3,5.2,0.3c1.7,0.6,3.4,1.7,5,3.2
	c1.6,1.5,2.8,3.1,3.5,4.8c0.7,1.7,0.9,3.4,0.6,5.1c-0.3,1.7-1.2,3.4-2.7,4.9c-1.7,1.8-3.6,2.9-5.6,3.1c-2,0.3-4-0.1-6-1.1l1.1-2
	c1.6,0.8,3.1,1.2,4.6,1c1.5-0.2,3-1,4.3-2.4c1.2-1.2,1.8-2.5,2-3.8s0-2.7-0.6-4c-0.6-1.3-1.6-2.6-2.9-3.9c-1.3-1.2-2.6-2.1-4-2.6
	c-1.4-0.5-2.7-0.6-4.1-0.3c-1.3,0.3-2.6,1.1-3.7,2.3c-1.3,1.4-2,2.9-2.1,4.4c-0.1,1.5,0.3,3.1,1.3,4.6l-2,1.2
	c-1.2-1.9-1.7-3.9-1.5-5.9C212.8,156.5,213.7,154.6,215.4,152.7z M199.1,166c1.8-1.1,3.6-1.6,5.4-1.6c1.8,0,3.4,0.6,4.9,1.6
	c1.5,1,2.9,2.5,4,4.4c1.1,1.9,1.8,3.7,2.1,5.6c0.2,1.8,0,3.5-0.8,5.1c-0.8,1.6-2.1,2.9-3.9,4c-1.8,1.1-3.6,1.7-5.4,1.6
	c-1.7,0-3.4-0.6-4.9-1.6c-1.5-1-2.9-2.5-4-4.4c-1.1-1.9-1.8-3.7-2-5.6c-0.2-1.8,0-3.5,0.8-5.1C196,168.4,197.3,167.1,199.1,166z
	 M200.2,167.8c-1.4,0.9-2.4,1.9-3,3.2c-0.6,1.2-0.7,2.6-0.5,4.1c0.2,1.5,0.8,3,1.7,4.5c0.9,1.5,2,2.7,3.2,3.6
	c1.2,0.9,2.5,1.3,3.8,1.4c1.4,0.1,2.8-0.3,4.2-1.2c1.4-0.9,2.4-1.9,3-3.2c0.6-1.2,0.7-2.6,0.5-4c-0.2-1.5-0.8-3-1.7-4.5
	s-2-2.7-3.2-3.6c-1.2-0.9-2.5-1.3-3.8-1.4C203,166.5,201.6,166.9,200.2,167.8z M188.1,172.5l5.9,20.7l-2.1,0.6l-16.2-13.7l4.9,16.9
	l-2.1,0.6l-5.9-20.7l2.1-0.6l16.2,13.7l-4.9-16.9L188.1,172.5z M162.5,177.7l0.7,19.4l7.5-0.3l0.1,2.1l-17.2,0.6l-0.1-2.1l7.5-0.3
	l-0.7-19.4L162.5,177.7z M152.4,178L141,197.7l-2.9-0.5l-3.2-22.5l2.2,0.4l3.1,21.2l-0.9-0.2l10.7-18.6L152.4,178z M148.1,182.5
	l-0.4,2l-10.9-2.1l0.4-2L148.1,182.5z M125.3,169.9c1.9,0.9,3.4,2.1,4.3,3.6c0.9,1.5,1.4,3.2,1.3,5s-0.5,3.8-1.5,5.8
	c-0.9,2-2.1,3.6-3.5,4.8c-1.4,1.2-3,1.9-4.7,2.2c-1.7,0.2-3.6-0.1-5.5-1c-2.3-1.1-3.8-2.5-4.7-4.3c-0.9-1.8-1.1-3.8-0.8-6l2.3,0.4
	c-0.3,1.7-0.1,3.3,0.5,4.7c0.6,1.4,1.8,2.5,3.6,3.3c1.5,0.7,3,1,4.3,0.7c1.3-0.2,2.5-0.8,3.6-1.8c1.1-1,2-2.3,2.8-3.9
	c0.8-1.6,1.2-3.2,1.3-4.6c0.1-1.5-0.2-2.8-0.9-4c-0.7-1.2-1.8-2.1-3.3-2.8c-1.7-0.8-3.4-1-4.9-0.6c-1.5,0.4-2.8,1.3-3.9,2.6
	l-1.8-1.5c1.4-1.7,3.2-2.8,5.1-3.3C120.9,168.5,123,168.8,125.3,169.9z M109.5,160.6l-12.3,15l5.8,4.8l-1.3,1.6l-13.3-10.9l1.3-1.6
	l5.8,4.8l12.3-15L109.5,160.6z M86.1,152.9l0,2l-3.8-0.2l1.2,3.7l-1.9,0.6l-1-3.7l-3.1,2.3l-1.2-1.7l3.2-2.1l-3.1-2.2l1.2-1.6l3,2.4
	l1.2-3.7l1.9,0.7l-1.3,3.6H86.1z M83.9,122.3c0.6,2,0.7,3.9,0.3,5.6c-0.5,1.7-1.4,3.1-2.8,4.4c-1.4,1.2-3.1,2.2-5.2,2.8
	s-4.1,0.9-5.9,0.6c-1.8-0.2-3.4-0.9-4.8-2c-1.3-1.1-2.3-2.7-3-4.8c-0.7-2.4-0.7-4.5,0-6.4c0.8-1.9,2.1-3.4,3.9-4.6l1.2,2
	c-1.5,0.9-2.5,2.1-3.1,3.6c-0.6,1.4-0.6,3.1,0,4.9c0.5,1.6,1.3,2.8,2.3,3.7c1.1,0.8,2.3,1.3,3.8,1.4c1.5,0.1,3.1-0.1,4.8-0.6
	c1.7-0.5,3.1-1.3,4.3-2.2c1.1-0.9,1.9-2.1,2.3-3.4c0.4-1.3,0.4-2.8-0.1-4.4c-0.6-1.8-1.5-3.2-2.8-4s-2.8-1.2-4.6-1.2l-0.1-2.3
	c2.2-0.1,4.2,0.4,5.9,1.6C82,118.2,83.2,120,83.9,122.3z M80.5,101.6c0.1,2.1-0.4,4-1.3,5.5c-0.9,1.5-2.2,2.7-3.8,3.5
	c-1.7,0.8-3.6,1.2-5.8,1.3c-2.2,0.1-4.1-0.3-5.9-1c-1.7-0.7-3.1-1.8-4-3.2c-1-1.4-1.5-3.2-1.6-5.4c-0.1-2.1,0.4-4,1.3-5.5
	c0.9-1.5,2.2-2.7,3.8-3.5c1.7-0.8,3.6-1.3,5.8-1.3c2.2-0.1,4.1,0.3,5.9,1c1.7,0.7,3.1,1.8,4,3.2C79.9,97.7,80.4,99.5,80.5,101.6z
	 M78.4,101.7c-0.1-1.7-0.5-3.1-1.3-4.2c-0.8-1.1-1.9-1.9-3.3-2.4c-1.4-0.5-3-0.8-4.8-0.7c-1.8,0.1-3.4,0.4-4.7,1
	C63,96,62,96.8,61.2,98c-0.7,1.1-1.1,2.6-1,4.2c0.1,1.7,0.5,3.1,1.3,4.2c0.8,1.1,1.9,1.9,3.3,2.4c1.4,0.5,3,0.8,4.8,0.7
	c1.8,0,3.4-0.4,4.7-1c1.3-0.6,2.4-1.5,3.1-2.6S78.4,103.4,78.4,101.7z M80.2,88.8l-20.9-5l0.5-2.1l19.9-7.4l-17.1-4.1l0.5-2.1L84,73
	l-0.5,2.1l-19.9,7.4l17.1,4.1L80.2,88.8z M88.3,64l-17.2-8.9l-3.5,6.7l-1.9-1l7.9-15.3l1.9,1l-3.5,6.7L89.3,62L88.3,64z M93,55
	L81.4,35.4l1.9-2.2l21.2,8.3l-1.5,1.7l-20-7.8l0.6-0.7l10.9,18.5L93,55z M91.1,49.1l-1.6-1.3l7.2-8.5l1.6,1.3L91.1,49.1z
	 M113.4,35.4c-1.7,1.2-3.5,1.9-5.2,2c-1.8,0.1-3.4-0.3-5-1.3c-1.6-0.9-3-2.3-4.3-4.1s-2.1-3.6-2.4-5.4c-0.4-1.8-0.2-3.5,0.4-5.2
	c0.6-1.6,1.8-3.1,3.6-4.3c2-1.4,4.1-2.1,6.1-2c2,0.1,3.9,0.9,5.6,2.3l-1.5,1.8c-1.4-1.1-2.8-1.7-4.4-1.9c-1.5-0.1-3.1,0.4-4.7,1.5
	c-1.4,1-2.3,2.1-2.8,3.4c-0.5,1.3-0.5,2.6-0.2,4.1s1,2.9,2,4.4c1,1.5,2.2,2.6,3.4,3.4c1.2,0.8,2.6,1.2,3.9,1.1
	c1.4,0,2.7-0.5,4.1-1.5c1.6-1.1,2.6-2.4,2.9-3.9c0.4-1.5,0.3-3.1-0.3-4.7l2.2-0.8c0.8,2.1,0.9,4.1,0.3,6.1
	C116.7,32.3,115.5,34,113.4,35.4z M129.2,26.3l-7-18.1l-7,2.7l-0.8-2l16.1-6.2l0.8,2l-7,2.7l7,18.1L129.2,26.3z M147.5,9.6l-1.7-1
	l2.1-3.3L144,4.6l0.4-2l3.7,0.9l-0.4-3.8l2-0.2l0.3,3.9l3.5-1.6l0.8,1.9l-3.6,1.5l2.6,2.8l-1.5,1.3l-2.5-2.9L147.5,9.6z"/>
</svg>
