<?xml version="1.0" encoding="utf-8"?>
<!-- Generator: Adobe Illustrator 27.0.1, SVG Export Plug-In . SVG Version: 6.00 Build 0)  -->
<svg version="1.1" id="Layer_1" xmlns="http://www.w3.org/2000/svg" xmlns:xlink="http://www.w3.org/1999/xlink" x="0px" y="0px"
	 width="60px" height="60px" viewBox="0 0 60 60" style="enable-background:new 0 0 60 60;" xml:space="preserve">
<style type="text/css">
	.st0{fill:#1D1F23;}
</style>
<path class="st0" d="M24.2,3.5l6.4,11.6l0.7,1.3l0.9-1.1l8.5-10.3l-1.7,13.3l-0.2,1.5l1.4-0.4L53,16l-9,9.7l-1,1.1l1.4,0.5l12.2,4.9
	l-12.9,2.6l-1.4,0.3l0.8,1.2l7.2,11.5l-12-5.6l-1.3-0.6L36.8,43L36,56.5l-6.4-11.6l-0.7-1.3L28,44.8l-8.5,10.3l1.7-13.3l0.2-1.5
	l-1.4,0.4L7.3,44l9-9.7l1-1l-1.3-0.6L3.4,27.4l13.1-2.7l1.4-0.3l-0.8-1.2l-7-11.2l12,5.6l1.3,0.6l0.1-1.5L24.2,3.5 M23.4,0
	l-0.9,16.7L7.4,9.6l8.8,14.1L0,27.1l15.5,6.6L4.2,45.9l16-4.2l-2.1,16.7l10.7-12.9L36.8,60l0.9-16.9l15.1,7.1l-9-14.4L60,32.5
	l-15.3-6.1l11.4-12.2l-16,4.2l2.1-16.7L31.5,14.6L23.4,0L23.4,0z"/>
</svg>
