<?xml version="1.0" encoding="utf-8"?>
<!-- Generator: Adobe Illustrator 27.0.1, SVG Export Plug-In . SVG Version: 6.00 Build 0)  -->
<svg version="1.1" id="Layer_1" xmlns="http://www.w3.org/2000/svg" xmlns:xlink="http://www.w3.org/1999/xlink" x="0px" y="0px"
	 width="176px" height="27px" viewBox="0 0 176 27" style="enable-background:new 0 0 176 27;" xml:space="preserve">
<style type="text/css">
	.st0{fill:#1D1F23;}
	.st1{fill:#131417;}
</style>
<path class="st0" d="M22.8,22.2l-6.5-3l-0.5,7.1l-3.5-6.2l-4.6,5.5l0.9-7.1l-6.9,1.8L6.6,15L0,12.4L7,11L3.2,5l6.5,3l0.5-7.1
	l3.5,6.2l4.6-5.5l-0.9,7.1l6.9-1.8l-4.9,5.2l6.6,2.6l-7,1.4L22.8,22.2z"/>
<path class="st1" d="M37,5.6l-5.3,15.8h2l1.2-3.7h6.8l1.3,3.7h2L39.7,5.6H37z M35.6,15.9l2.8-8.2l2.8,8.2H35.6z M49.4,19.6h7.3v1.9
	h-9.3V5.6h2V19.6z M58.8,5.6h10v1.9h-8.1v5h6.7v1.9h-6.7v5.3h8.1v1.9h-10V5.6z M78.2,13.4l5.4,8h-2.4L77,15.1l-4.2,6.4h-2.4l5.4-8
	l-5.3-7.8h2.4l4.1,6.2l4.1-6.2h2.4L78.2,13.4z M109.2,5.6l-4.6,15.8h-2L99.1,9l-3.6,12.4h-2L89,5.6h2l3.5,12.5l3.5-12.5l2.1,0
	l3.5,12.5l3.5-12.5H109.2z M114,5.6l-5.3,15.8h2l1.2-3.7h6.8l1.3,3.7h2l-5.3-15.8H114z M112.6,15.9l2.8-8.2l2.8,8.2H112.6z
	 M126.4,19.6h7.3v1.9h-9.3V5.6h2V19.6z M140,13.3l7.8,8.2h-2.5l-7.4-7.7v7.7h-2V5.6h2V13l6.9-7.4h2.5L140,13.3z M149.5,5.6h10v1.9
	h-8.1v5h6.7v1.9h-6.7v5.3h8.1v1.9h-10V5.6z M174.1,21.4l-3.1-6.3c0.7-0.3,1.3-0.8,1.8-1.4c0.6-0.9,1-2,1-3.2c0-0.8-0.1-1.6-0.4-2.3
	C173,7.6,172.6,7,172,6.5c-0.6-0.5-1.3-0.7-2.2-0.9c-0.2,0-0.4-0.1-0.6-0.1c-0.2,0-0.4,0-0.5,0h-6.3v15.8h2v-5.9h4.6l2.8,5.9H174.1z
	 M164.3,13.7V7.4h4.2c0.1,0,0.3,0,0.5,0c0.2,0,0.3,0,0.5,0.1c0.5,0.1,0.9,0.3,1.2,0.6c0.3,0.3,0.6,0.7,0.7,1.1s0.2,0.9,0.2,1.3
	c0,0.4-0.1,0.9-0.2,1.3s-0.4,0.8-0.7,1.1c-0.3,0.3-0.7,0.5-1.2,0.6c-0.2,0-0.3,0.1-0.5,0.1c-0.2,0-0.3,0-0.5,0H164.3z"/>
</svg>
